<svg viewBox="0 0 32 32" xmlns="http://www.w3.org/2000/svg"><path d="m12 6v3h-6v3h-3v3h-.9375c-.308594.007813-.597656.15625-.78125.40625 0 0-.085937.105469-.125.1875-.039062.082031-.066406.207031-.09375.3125-.058594.214844-.09375.457031-.09375.8125 0 .6875.082031 1.449219.28125 2.21875-.085937.019531-.179687.042969-.25.0625h.28125c.207031.773438.523438 1.550781.96875 2.3125.011719.019531.019531.042969.03125.0625v.03125c.058594.242188.203125.453125.40625.59375l.03125.03125c.167969.234375.335938.464844.53125.6875 1.636719 1.882813 4.277344 3.3125 8.03125 3.3125 5.765625 0 10.757813-2.375 13.75-7.03125h5.0625c-.632812-.160156-2.007812-.390625-1.78125-1.21875-.699219.808594-1.992187.980469-3.0625.84375.351563-.582031.679688-1.195312.96875-1.84375 1.65625-.097656 2.914063-.65625 3.625-1.34375.8125-.785156 1.0625-1.6875 1.0625-1.6875.105469-.375-.015625-.777344-.3125-1.03125 0 0-1.511719-1.058594-3.6875-.84375-.746094-1.992187-2.3125-2.96875-2.3125-2.96875-.207031-.121094-.449219-.167969-.6875-.125-.160156.035156-.3125.109375-.4375.21875 0 0-.457031.40625-.8125 1.0625s-.675781 1.652344-.5625 2.90625c.042969.460938.324219.867188.5 1.3125-.125.078125-.242187.167969-.40625.25-.503906.246094-1.191406.46875-2.09375.46875h-.09375v-3h-3v-6zm2 2h1v1h-1zm-6 3h1v1h-1zm3 0h1v1h-1zm3 0h1v1h-1zm10.34375.3125c.359375.40625.75.980469.90625 1.8125.050781.277344.214844.515625.453125.664063.238281.148437.527344.191406.796875.117187.90625-.246094 1.566406-.167969 2.03125-.03125-.054687.066406-.019531.054688-.09375.125-.457031.441406-1.222656.933594-2.8125.875-.421875-.015625-.808594.234375-.96875.625-.449219 1.113281-.972656 2.113281-1.59375 3-1.476562.574219-4.761719.152344-5.03125-.59375-.976562 1.144531-3.988281 1.144531-4.96875 0-.316406.878906-4.875 1.285156-5.65625.15625-.628906.585938-2.917969.976563-4.21875.09375-.082031-.402344-.140625-.796875-.15625-1.15625h17.0625c1.246094 0 2.25-.335937 2.96875-.6875.359375-.175781.660156-.351562.875-.5.214844-.148437.394531-.28125.34375-.25.246094-.144531.417969-.390625.46875-.671875.054688-.28125-.011719-.570312-.1875-.796875-.265625-.347656-.417969-.773437-.46875-1.3125-.0625-.703125.097656-1.109375.25-1.46875zm-19.34375 2.6875h1v1h-1zm3 0h1v1h-1zm3 0h1v1h-1zm3 0h1v1h-1zm3 0h1v1h-1zm-13.59375 5h19.28125c-2.632812 3.40625-6.613281 5.03125-11.40625 5.03125-2.511719 0-4.273437-.675781-5.53125-1.65625 2.125-.074219 3.65625-.625 3.65625-.625.542969-.105469.902344-.628906.796875-1.171875s-.628906-.902344-1.171875-.796875c-.042969.007813-.085937.019531-.125.03125-.054687.015625-.105469.039063-.15625.0625 0 0-2.191406.71875-4.78125.40625-.238281-.425781-.421875-.847656-.5625-1.28125zm7.3125.1875c-.320312 0-.59375.269531-.59375.59375 0 .320313.273438.59375.59375.59375.320313 0 .5625-.273437.5625-.59375 0-.078125-.003906-.148437-.03125-.21875-.039062.074219-.128906.125-.21875.125-.132812 0-.21875-.117187-.21875-.25 0-.089844.023438-.148437.09375-.1875-.066406-.027344-.113281-.0625-.1875-.0625z"/></svg>